{"title":"Hunger Games Mockingjay Part 1 [2014] (No Cinavia) 1080p","uid":11809795,"size":2779180581,"categoryP":"video","categoryS":"hd___movies","magnet":"?xt=urn:btih:74730c71c45b394d84f74373e47c348230618769&amp;dn=Hunger+Games+Mockingjay+Part+1+%5B2014%5D+%28No+Cinavia%29+1080p&amp;tr=udp%3A%2F%2Ftracker.openbittorrent.com%3A80&amp;tr=udp%3A%2F%2Fopen.demonii.com%3A1337&amp;tr=udp%3A%2F%2Ftracker.coppersurfer.tk%3A6969&amp;tr=udp%3A%2F%2Fexodus.desync.com%3A6969","seeders":35,"leechers":3,"uploader":"AlienMethod","files":7,"time":1428731115,"description":"x264/mp4\nCinavia Removed/CinExHD\n6-Channel AAC@360kbps (audio 1)\n2-Channel AAC@128kbps (audio 2)\nEnglish Subs Incl.\n\n\n&quot;Katniss Everdeen is in District 13 after she shatters the games forever. Under the\nleadership of President Coin and the advice of her trusted friends, Katniss spreads her \nwings as she fights to save Peeta and a nation moved by her courage.&quot;\n\n\n\nGeneral\nComplete name : F:TorrentsHunger Games Mockingjay Part 1 [2014] (NoCinavia) 1080p\nHunger Games Mockingjay Pt 1 [2014] (NoCinavia) 1080p.mp4\nFormat : MPEG-4\nFormat profile : Base Media\nCodec ID : isom\nFile size : 2.59 GiB\nDuration : 2h 2mn\nOverall bit rate mode : Variable\nOverall bit rate : 3 016 Kbps\nEncoded date : UTC 2015-04-11 02:53:14\nTagged date : UTC 2015-04-11 02:53:14\nWriting application : My MP4Box GUI 0.6.0.6 \n\nVideo\nID : 1\nFormat : AVC\nFormat/Info : Advanced Video Codec\nFormat profile : &lt;a class=&quot;__cf_email__&quot; href=&quot;/cdn-cgi/l/email-protection&quot; data-cfemail=&quot;2d65444a456d6119031c&quot;&gt;[email&amp;#160;protected]&lt;/a&gt;&lt;script cf-hash='f9e31' type=&quot;text/javascript&quot;&gt;\n/* &lt;![CDATA[ */!function(){try{var t=&quot;currentScript&quot;in document?document.currentScript:function(){for(var t=document.getElementsByTagName(&quot;script&quot;),e=t.length;e--;)if(t[e].getAttribute(&quot;cf-hash&quot;))return t[e]}();if(t&amp;&amp;t.previousSibling){var e,r,n,i,c=t.previousSibling,a=c.getAttribute(&quot;data-cfemail&quot;);if(a){for(e=&quot;&quot;,r=parseInt(a.substr(0,2),16),n=2;a.length-n;n+=2)i=parseInt(a.substr(n,2),16)^r,e+=String.fromCharCode(i);e=document.createTextNode(e),c.parentNode.replaceChild(e,c)}}}catch(u){}}();/* ]]&gt; */&lt;/script&gt;\nFormat settings, CABAC : Yes\nFormat settings, ReFrames : 5 frames\nCodec ID : avc1\nCodec ID/Info : Advanced Video Coding\nDuration : 2h 2mn\nBit rate : 2 499 Kbps\nMaximum bit rate : 37.2 Mbps\nWidth : 1 920 pixels\nHeight : 800 pixels\nDisplay aspect ratio : 2.40:1\nFrame rate mode : Constant\nFrame rate : 23.976 fps\nColor space : YUV\nChroma subsampling : 4:2:0\nBit depth : 8 bits\nScan type : Progressive\nBits/(Pixel*Frame) : 0.068\nStream size : 2.14 GiB (83%)\nTitle : HungerGamesMockingJay(CinEx)_track1_und.h264\nWriting library : x264 core 142 r2431 ac76440\nEncoded date : UTC 2015-04-11 02:53:14\nTagged date : UTC 2015-04-11 02:53:41\n\nAudio #1\nID : 2\nFormat : AAC\nFormat/Info : Advanced Audio Codec\nFormat profile : LC\nCodec ID : 40\nDuration : 2h 2mn\nBit rate mode : Variable\nBit rate : 384 Kbps\nMaximum bit rate : 505 Kbps\nChannel(s) : 2 channels\nChannel(s)_Original : 6 channels\nChannel positions : Front: L C R, Side: L R, LFE\nSampling rate : 48.0 KHz\nCompression mode : Lossy\nStream size : 337 MiB (13%)\nTitle : HungerGamesMockingJay(CinEx)AAC6.aac\nEncoded date : UTC 2015-04-11 02:53:32\nTagged date : UTC 2015-04-11 02:53:41\n\nAudio #2\nID : 3\nFormat : AAC\nFormat/Info : Advanced Audio Codec\nFormat profile : LC\nCodec ID : 40\nDuration : 2h 2mn\nBit rate mode : Variable\nBit rate : 128 Kbps\nMaximum bit rate : 137 Kbps\nChannel(s) : 2 channels\nChannel positions : Front: L R\nSampling rate : 48.0 KHz\nCompression mode : Lossy\nStream size : 112 MiB (4%)\nTitle : HungerGamesMockingJay(CinEx)AAC2.m4a\nEncoded date : UTC 2015-04-11 02:53:37\nTagged date : UTC 2015-04-11 02:53:41","torrent":{"xt":"urn:btih:74730c71c45b394d84f74373e47c348230618769","amp;dn":"Hunger+Games+Mockingjay+Part+1+%5B2014%5D+%28No+Cinavia%29+1080p","amp;tr":["udp%3A%2F%2Ftracker.openbittorrent.com%3A80","udp%3A%2F%2Fopen.demonii.com%3A1337","udp%3A%2F%2Ftracker.coppersurfer.tk%3A6969","udp%3A%2F%2Fexodus.desync.com%3A6969"],"infoHash":"74730c71c45b394d84f74373e47c348230618769","infoHashBuffer":{"type":"Buffer","data":[116,115,12,113,196,91,57,77,132,247,67,115,228,124,52,130,48,97,135,105]},"announce":[],"urlList":[]}}